<?xml version="1.0" encoding="UTF-8"?>
<svg width="17130px" height="11085px" viewBox="0 0 17130 11085" version="1.1" xmlns="http://www.w3.org/2000/svg" xmlns:xlink="http://www.w3.org/1999/xlink">
    <!-- Generator: Sketch 39.1 (31720) - http://www.bohemiancoding.com/sketch -->
    <title>Group</title>
    <desc>Created with Sketch.</desc>
    <defs></defs>
    <g id="Page-1" stroke="none" stroke-width="1" fill="none" fill-rule="evenodd">
        <g id="Group">
            <path d="M2911,5022.9856 L2911,4337.9856 L2781,4142.9856 L2651,3947.9856 L2651,3495.9856 L2651,3042.9856 L2326,2717.9856 L2001,2392.9856 L2001,2246.9856 L2001,2099.9856 L1354,1466.9856 C997,1118.9856 651,779.985599 584,714.985599 L463,595.985599 L415,611.985599 C354,632.985599 277,631.985599 210,610.985599 C138,587.985599 42,494.985599 18,423.985599 C-9,344.985599 -4,253.985599 30,182.985599 C163,-94.0144008 555,-46.0144008 622,255.985599 C634,305.985599 628,363.985599 607,432.985599 C601,449.985599 739,588.985599 1401,1235.9856 L2201,2018.9856 L2201,2165.9856 L2201,2312.9856 L2526,2637.9856 L2851,2962.9856 L2851,3425.9856 L2851,3889.9856 L2981,4082.9856 L3111,4276.9856 L3111,4992.9856 L3111,5707.9856 L3011,5707.9856 L2911,5707.9856 L2911,5022.9856 L2911,5022.9856 Z" id="Shape" fill="#464646" transform="translate(1555.840925, 2853.992800) scale(1, -1) translate(-1555.840925, -2853.992800) "></path>
            <path d="M2331,2962 L2331,1938 L1839,1477 C1568,1223 1327,997 1304,974 C1263,933 1262,932 1224,944 C1071,995 888,908 831,756 C813,710 810,684 813,624 C820,503 882,409 989,357 C1037,333 1059,329 1126,329 C1193,329 1215,333 1263,357 C1407,428 1474,593 1424,751 L1407,806 L1486,882 C1530,925 1781,1159 2043,1404 L2521,1849 L2518,2914 L2516,3979 L2424,3982 L2331,3985 L2331,2962 L2331,2962 Z" id="Shape" fill="#E70F47" transform="translate(1666.493247, 2157.000000) scale(1, -1) translate(-1666.493247, -2157.000000) "></path>
            <path d="M5163,3053.57794 L4129,1948.57794 L3893,1948.57794 L3656,1949.57794 L3621,2009.57794 C3570,2099.57794 3501,2148.57794 3401,2166.57794 C3254,2193.57794 3103,2109.57794 3051,1970.57794 C3023,1896.57794 3027,1784.57794 3060,1720.57794 C3132,1579.57794 3287,1509.57794 3434,1552.57794 C3508,1574.57794 3567,1620.57794 3616,1695.57794 L3656,1757.57794 L3937,1758.57794 L4218,1758.57794 L5277,2889.57794 C5859,3512.57794 6337,4024.57794 6339,4028.57794 C6342,4036.57794 6216,4158.57794 6204,4158.57794 C6200,4158.57794 5731,3660.57794 5163,3053.57794 L5163,3053.57794 Z" id="Shape" fill="#E70F47" transform="translate(4685.709216, 2849.288969) scale(1, -1) translate(-4685.709216, -2849.288969) "></path>
            <path d="M5116,5626.37742 C5089,5619.37742 5051,5606.37742 5033,5596.37742 C4984,5571.37742 4922,5504.37742 4900,5454.37742 L4880,5410.37742 L4524,5408.37742 L4167,5405.37742 L3765,4940.37742 L3362,4475.37742 L3162,4470.37742 L2962,4465.37742 L2657,4150.37742 L2352,3835.37742 L2352,3059.37742 L2351,2283.37742 L2309,2264.37742 C2246,2236.37742 2176,2161.37742 2151,2093.37742 C2133,2046.37742 2130,2020.37742 2133,1960.37742 C2140,1839.37742 2202,1745.37742 2309,1693.37742 C2357,1669.37742 2379,1665.37742 2446,1665.37742 C2513,1665.37742 2535,1669.37742 2583,1693.37742 C2779,1789.37742 2822,2053.37742 2665,2205.37742 C2642,2228.37742 2605,2254.37742 2582,2264.37742 L2541,2283.37742 L2541,3038.37742 L2541,3793.37742 L2608,3864.37742 C2645,3903.37742 2750,4012.37742 2840,4105.37742 L3005,4275.37742 L3230,4280.37742 L3455,4285.37742 L3859,4753.37742 L4264,5220.37742 L4572,5220.37742 L4879,5220.37742 L4909,5167.37742 C4971,5058.37742 5060,5005.37742 5186,5005.37742 C5254,5005.37742 5275,5009.37742 5323,5033.37742 C5539,5139.37742 5563,5448.37742 5364,5579.37742 C5288,5629.37742 5196,5647.37742 5116,5626.37742 L5116,5626.37742 Z" id="Shape" fill="#E70F47" transform="translate(3816.032042, 3650.188710) scale(1, -1) translate(-3816.032042, -3650.188710) "></path>
            <path d="M6534,2518.49367 C6476,2498.49367 6395,2423.49367 6364,2361.49367 C6260,2156.49367 6414,1910.49367 6645,1911.49367 C6768,1911.49367 6876,1976.49367 6928,2083.49367 C6952,2132.49367 6956,2152.49367 6956,2225.49367 C6956,2298.49367 6952,2317.49367 6929,2361.49367 C6895,2426.49367 6815,2498.49367 6754,2519.49367 C6696,2539.49367 6590,2538.49367 6534,2518.49367 L6534,2518.49367 Z" id="Shape" fill="#464646" transform="translate(6643.446165, 2222.746834) scale(1, -1) translate(-6643.446165, -2222.746834) "></path>
            <path d="M4144,9584.50216 C4086,9564.50216 4005,9489.50216 3974,9427.50216 C3938,9356.50216 3932,9265.50216 3959,9186.50216 L3980,9126.50216 L3873,9019.50216 L3766,8911.50216 L3386,8911.50216 L3006,8911.50216 L2859,8764.50216 L2711,8616.50216 L2711,8081.50216 L2712,7546.50216 L2981,7318.50216 L3251,7090.50216 L3251,5317.50216 C3251,4143.50216 3255,3508.50216 3262,3440.50216 C3297,3094.50216 3411,2857.50216 3622,2688.50216 C3801,2544.50216 4007,2480.50216 4286,2481.50216 C4472,2482.50216 4615,2510.50216 4747,2571.50216 C5033,2703.50216 5202,2926.50216 5277,3271.50216 L5305,3396.50216 L5308,4344.50216 L5312,5291.50216 L5172,5291.50216 L5032,5291.50216 L5028,4359.50216 C5025,3457.50216 5024,3423.50216 5004,3336.50216 C4934,3033.50216 4783,2849.50216 4536,2766.50216 C4437,2732.50216 4256,2721.50216 4134,2741.50216 C3832,2789.50216 3639,2989.50216 3558,3336.50216 C3537,3424.50216 3537,3449.50216 3534,4645.50216 L3530,5863.50216 L3601,5801.50216 C3639,5766.50216 3671,5733.50216 3671,5726.50216 C3671,5719.50216 3664,5697.50216 3656,5678.50216 C3636,5631.50216 3637,5527.50216 3657,5468.50216 C3678,5407.50216 3750,5327.50216 3815,5293.50216 C3883,5257.50216 4011,5255.50216 4082,5287.50216 C4148,5318.50216 4203,5371.50216 4236,5438.50216 C4261,5487.50216 4265,5508.50216 4265,5576.50216 C4265,5643.50216 4261,5665.50216 4238,5713.50216 C4206,5778.50216 4149,5834.50216 4082,5865.50216 C4045,5882.50216 4019,5885.50216 3951,5884.50216 C3904,5883.50216 3854,5881.50216 3840,5879.50216 C3818,5877.50216 3788,5899.50216 3672,6004.50216 L3531,6132.50216 L3531,6624.50216 L3530,7116.50216 L3216,7381.50216 L2901,7646.50216 L2901,8084.50216 L2901,8523.50216 L2989,8617.50216 L3076,8711.50216 L3461,8711.50216 L3845,8711.50216 L3988,8852.50216 L4130,8993.50216 L4168,8985.50216 C4295,8956.50216 4427,8999.50216 4501,9093.50216 C4577,9188.50216 4591,9322.50216 4538,9427.50216 C4505,9491.50216 4425,9564.50216 4364,9585.50216 C4306,9605.50216 4200,9604.50216 4144,9584.50216 L4144,9584.50216 Z" id="Shape" fill="#464646" transform="translate(4011.500000, 6040.751080) scale(1, -1) translate(-4011.500000, -6040.751080) "></path>
            <path d="M5934,3122.10673 C5876,3102.10673 5795,3027.10673 5764,2965.10673 C5714,2866.10673 5725,2732.10673 5790,2642.10673 C5851,2557.10673 5976,2501.10673 6075,2513.10673 C6294,2539.10673 6425,2773.10673 6328,2965.10673 C6295,3029.10673 6215,3102.10673 6154,3123.10673 C6096,3143.10673 5990,3142.10673 5934,3122.10673 L5934,3122.10673 Z" id="Shape" fill="#464646" transform="translate(6046.606612, 2824.553363) scale(1, -1) translate(-6046.606612, -2824.553363) "></path>
            <path d="M11231,6551.16593 C11080,6531.16593 11014,6519.16593 10939,6497.16593 C10358,6322.16593 10011,5850.16593 10011,5232.16593 C10011,4882.16593 10107,4593.16593 10306,4345.16593 C10417,4206.16593 10548,4106.16593 10735,4016.16593 C10864,3954.16593 10990,3918.16593 11149,3897.16593 C11514,3849.16593 11840,3915.16593 12106,4091.16593 C12184,4142.16593 12351,4302.16593 12351,4325.16593 C12351,4333.16593 12325,4356.16593 12294,4377.16593 C12262,4398.16593 12183,4453.16593 12118,4499.16593 C12054,4544.16593 11994,4582.16593 11986,4582.16593 C11978,4582.16593 11958,4564.16593 11940,4542.16593 C11868,4452.16593 11701,4352.16593 11566,4317.16593 C11357,4263.16593 11083,4309.16593 10901,4428.16593 C10819,4483.16593 10709,4600.16593 10657,4688.16593 C10555,4862.16593 10516,5033.16593 10524,5262.16593 C10534,5509.16593 10598,5679.16593 10749,5857.16593 C10927,6066.16593 11238,6179.16593 11507,6132.16593 C11679,6101.16593 11808,6038.16593 11908,5935.16593 C11937,5905.16593 11965,5882.16593 11970,5884.16593 C11999,5895.16593 12310,6150.16593 12311,6163.16593 C12311,6185.16593 12179,6311.16593 12108,6356.16593 C11868,6509.16593 11514,6588.16593 11231,6551.16593 L11231,6551.16593 Z" id="Shape" fill="#E70F47" transform="translate(11181.000000, 5221.082964) scale(1, -1) translate(-11181.000000, -5221.082964) "></path>
            <polygon id="Shape" fill="#E70F47" transform="translate(6081.000000, 5225.000000) scale(1, -1) translate(-6081.000000, -5225.000000) " points="5031 5225 5031 3950 5261 3950 5491 3950 5491 4515 5491 5080 6076 5080 6661 5080 6663 4518 6666 3955 6899 3952 7131 3950 7131 5225 7131 6500 6896 6500 6661 6500 6661 5985 6661 5470 6079 5472 5496 5475 5494 5985 5492 6495 5261 6498 5031 6500"></polygon>
            <path d="M8461,6491.75856 C8461,6486.75856 8434,6422.75856 8402,6349.75856 C8370,6276.75856 8314,6147.75856 8277,6063.75856 C8241,5980.75856 8182,5845.75856 8147,5763.75856 C8112,5682.75856 8046,5531.75856 8001,5426.75856 C7956,5322.75856 7901,5196.75856 7879,5146.75856 C7856,5097.75856 7819,5011.75856 7796,4956.75856 C7773,4901.75856 7724,4789.75856 7688,4706.75856 C7652,4624.75856 7591,4484.75856 7553,4396.75856 C7515,4308.75856 7458,4178.75856 7427,4107.75856 C7396,4036.75856 7371,3972.75856 7371,3964.75856 C7371,3953.75856 7416,3951.75856 7628,3953.75856 L7884,3956.75856 L7917,4036.75856 C7935,4080.75856 7986,4209.75856 8032,4324.75856 L8114,4531.75856 L8656,4531.75856 L9198,4531.75856 L9254,4394.75856 C9284,4318.75856 9337,4187.75856 9371,4104.75856 L9434,3951.75856 L9697,3951.75856 C9873,3951.75856 9961,3954.75856 9961,3961.75856 C9961,3967.75856 9945,4006.75856 9926,4049.75856 C9890,4131.75856 9784,4376.75856 9721,4526.75856 C9700,4576.75856 9644,4706.75856 9596,4816.75856 C9548,4926.75856 9485,5072.75856 9456,5141.75856 C9427,5210.75856 9337,5419.75856 9256,5606.75856 C9115,5932.75856 9080,6013.75856 8939,6346.75856 L8875,6496.75856 L8668,6499.75856 C8534,6500.75856 8461,6498.75856 8461,6491.75856 L8461,6491.75856 Z M8734,5721.75856 C8770,5625.75856 8841,5438.75856 8891,5306.75856 C8942,5174.75856 8993,5036.75856 9006,4999.75856 L9030,4931.75856 L8651,4931.75856 L8273,4931.75856 L8308,5019.75856 C8327,5067.75856 8366,5169.75856 8396,5246.75856 C8425,5323.75856 8481,5469.75856 8520,5571.75856 C8560,5673.75856 8606,5793.75856 8624,5838.75856 C8642,5886.75856 8658,5915.75856 8662,5908.75856 C8666,5902.75856 8698,5817.75856 8734,5721.75856 L8734,5721.75856 Z" id="Shape" fill="#E70F47" transform="translate(8666.000000, 5225.879282) scale(1, -1) translate(-8666.000000, -5225.879282) "></path>
            <path d="M12613,5228 L12616,3955 L12846,3955 L13076,3955 L13081,4582 L13086,5210 L13486,4753 C13706,4502 13954,4218 14036,4123 L14186,3951 L14503,3950 C14693,3950 14822,3954 14826,3960 C14829,3965 14668,4146 14469,4362 C14269,4578 14046,4820 13972,4900 C13898,4980 13779,5107 13708,5184 L13578,5322 L13807,5548 C14406,6140 14751,6485 14751,6492 C14751,6496 14612,6500 14443,6500 L14134,6500 L13855,6213 C13701,6054 13465,5811 13331,5671 L13086,5418 L13083,5959 L13081,6500 L12846,6500 L12611,6500 L12613,5228 L12613,5228 Z" id="Shape" fill="#E70F47" transform="translate(13718.520628, 5225.000000) scale(1, -1) translate(-13718.520628, -5225.000000) "></path>
            <path d="M15857,6278 C15847,6210 15835,6146 15831,6135 C15826,6121 15798,6107 15735,6086 C15686,6070 15641,6055 15634,6053 C15627,6050 15575,6093 15519,6148 L15416,6248 L15320,6176 L15223,6105 L15287,5977 L15351,5850 L15310,5792 C15287,5761 15258,5721 15245,5704 L15222,5673 L15124,5686 C15070,5694 15007,5703 14984,5706 L14942,5712 L14910,5609 C14893,5552 14876,5500 14874,5494 C14872,5488 14926,5454 14995,5419 L15121,5355 L15121,5243 L15121,5130 L15059,5099 C15024,5082 14968,5052 14934,5033 L14873,4999 L14907,4897 C14926,4841 14943,4790 14945,4784 C14948,4776 14991,4780 15088,4795 C15164,4808 15229,4815 15232,4811 C15235,4808 15266,4768 15300,4723 L15361,4641 L15301,4520 C15268,4454 15241,4396 15241,4391 C15241,4381 15415,4250 15428,4250 C15432,4250 15479,4293 15533,4347 L15630,4443 L15725,4415 C15777,4400 15825,4384 15831,4380 C15840,4375 15890,4140 15891,4103 C15891,4101 15945,4100 16010,4100 C16125,4100 16129,4101 16134,4123 C16137,4135 16147,4198 16157,4262 L16175,4379 L16280,4415 L16384,4450 L16482,4355 C16536,4303 16585,4260 16590,4260 C16599,4260 16749,4365 16774,4390 C16779,4394 16754,4454 16720,4523 L16657,4649 L16704,4717 C16730,4754 16759,4795 16769,4807 L16786,4828 L16911,4809 C16980,4799 17043,4790 17051,4790 C17068,4790 17140,5005 17127,5018 C17123,5022 17067,5052 17003,5085 L16886,5145 L16883,5255 L16881,5365 L17003,5429 C17071,5464 17128,5494 17129,5496 C17131,5497 17116,5550 17095,5613 C17066,5701 17054,5726 17042,5724 C17033,5722 16971,5712 16903,5701 L16779,5683 L16715,5768 C16680,5815 16651,5857 16651,5862 C16651,5866 16678,5924 16711,5990 C16744,6056 16771,6111 16771,6113 C16771,6115 16728,6147 16676,6184 L16581,6252 L16503,6182 C16461,6143 16415,6100 16402,6086 C16388,6072 16373,6060 16368,6060 C16363,6060 16315,6074 16261,6091 L16164,6122 L16140,6261 L16117,6400 L15996,6400 L15876,6400 L15857,6278 L15857,6278 Z M16130,5506 C16224,5458 16291,5351 16291,5250 C16291,5067 16103,4923 15929,4974 C15734,5030 15657,5248 15772,5417 C15850,5531 16005,5569 16130,5506 L16130,5506 Z" id="Shape" fill="#E70F47" transform="translate(16001.089388, 5250.000000) scale(1, -1) translate(-16001.089388, -5250.000000) "></path>
            <path d="M1452,5957.92609 C1352,5937.92609 1275,5876.92609 1230,5783.92609 C1206,5733.92609 1201,5710.92609 1201,5648.92609 C1201,5517.92609 1265,5417.92609 1384,5363.92609 C1504,5308.92609 1637,5332.92609 1732,5427.92609 C1796,5492.92609 1825,5560.92609 1825,5648.92609 C1825,5844.92609 1642,5996.92609 1452,5957.92609 L1452,5957.92609 Z" id="Shape" fill="#464646" transform="translate(1513.000000, 5649.463046) scale(1, -1) translate(-1513.000000, -5649.463046) "></path>
            <path d="M2356,6889.69114 C2221,6844.69114 2142,6743.69114 2133,6606.69114 C2126,6500.69114 2149,6443.69114 2225,6366.69114 C2273,6319.69114 2298,6302.69114 2345,6288.69114 C2498,6240.69114 2658,6308.69114 2728,6450.69114 C2750,6496.69114 2756,6520.69114 2756,6582.69114 C2756,6755.69114 2634,6887.69114 2462,6898.69114 C2422,6900.69114 2380,6897.69114 2356,6889.69114 L2356,6889.69114 Z" id="Shape" fill="#464646" transform="translate(2443.904636, 6586.345569) scale(1, -1) translate(-2443.904636, -6586.345569) "></path>
            <path d="M16595,7087.48418 C16566,7039.48418 16565,7038.48418 16514,7038.48418 C16464,7038.48418 16460,7040.48418 16429,7082.48418 L16395,7125.48418 L16346,7101.48418 C16318,7087.48418 16295,7075.48418 16294,7074.48418 C16293,7073.48418 16298,7049.48418 16305,7021.48418 L16319,6969.48418 L16285,6929.48418 C16266,6907.48418 16245,6891.48418 16238,6893.48418 C16231,6895.48418 16207,6899.48418 16183,6902.48418 C16142,6908.48418 16140,6907.48418 16127,6876.48418 C16098,6804.48418 16098,6802.48418 16136,6778.48418 C16192,6744.48418 16201,6730.48418 16201,6684.48418 C16201,6645.48418 16197,6639.48418 16156,6609.48418 C16131,6591.48418 16111,6575.48418 16111,6573.48418 C16111,6570.48418 16121,6547.48418 16133,6521.48418 C16146,6494.48418 16156,6472.48418 16156,6471.48418 C16156,6470.48418 16182,6475.48418 16213,6483.48418 L16269,6496.48418 L16305,6459.48418 C16339,6425.48418 16340,6421.48418 16334,6368.48418 L16329,6313.48418 L16381,6295.48418 C16438,6275.48418 16436,6274.48418 16466,6330.48418 C16485,6364.48418 16510,6378.48418 16555,6378.48418 C16584,6378.48418 16595,6371.48418 16622,6336.48418 C16640,6312.48418 16656,6292.48418 16657,6290.48418 C16658,6288.48418 16682,6297.48418 16711,6309.48418 C16759,6330.48418 16762,6333.48418 16757,6360.48418 C16754,6375.48418 16748,6400.48418 16745,6416.48418 C16741,6437.48418 16747,6451.48418 16773,6481.48418 L16806,6519.48418 L16862,6510.48418 L16918,6501.48418 L16935,6547.48418 C16944,6572.48418 16951,6598.48418 16951,6605.48418 C16951,6611.48418 16931,6628.48418 16906,6642.48418 C16862,6668.48418 16861,6670.48418 16861,6722.48418 C16861,6773.48418 16863,6777.48418 16901,6803.48418 C16923,6818.48418 16941,6836.48418 16941,6842.48418 C16940,6864.48418 16902,6938.48418 16891,6938.48418 C16885,6938.48418 16860,6933.48418 16835,6927.48418 C16791,6916.48418 16789,6916.48418 16754,6949.48418 C16720,6982.48418 16719,6985.48418 16725,7039.48418 L16730,7095.48418 L16677,7115.48418 L16623,7135.48418 L16595,7087.48418 L16595,7087.48418 Z M16597,6832.48418 C16649,6807.48418 16674,6758.48418 16669,6692.48418 C16665,6645.48418 16659,6631.48418 16628,6601.48418 C16598,6570.48418 16584,6564.48418 16539,6561.48418 C16498,6558.48418 16479,6562.48418 16453,6577.48418 C16367,6632.48418 16357,6746.48418 16433,6814.48418 C16445,6826.48418 16463,6838.48418 16471,6841.48418 C16501,6852.48418 16564,6848.48418 16597,6832.48418 L16597,6832.48418 Z" id="Shape" fill="#E70F47" transform="translate(16528.630659, 6709.242091) scale(1, -1) translate(-16528.630659, -6709.242091) "></path>
            <path d="M11901,9577.03836 C11579,9508.03836 11349,9309.03836 11281,9042.03836 C11256,8945.03836 11254,8755.03836 11277,8658.03836 C11303,8545.03836 11356,8452.03836 11446,8362.03836 C11573,8233.03836 11650,8195.03836 12059,8057.03836 C12188,8014.03836 12329,7959.03836 12374,7936.03836 C12487,7877.03836 12571,7796.03836 12619,7700.03836 L12656,7624.03836 L12656,7493.03836 L12656,7362.03836 L12617,7282.03836 C12547,7140.03836 12423,7040.03836 12251,6986.03836 C12187,6966.03836 12156,6963.03836 12041,6964.03836 C11924,6965.03836 11896,6968.03836 11826,6991.03836 C11782,7006.03836 11717,7034.03836 11682,7055.03836 C11617,7093.03836 11497,7203.03836 11449,7268.03836 L11424,7303.03836 L11307,7215.03836 C11243,7167.03836 11191,7125.03836 11191,7121.03836 C11191,7104.03836 11294,6997.03836 11364,6943.03836 C11487,6845.03836 11633,6780.03836 11815,6740.03836 C11938,6714.03836 12187,6717.03836 12304,6746.03836 C12502,6795.03836 12632,6868.03836 12751,6995.03836 C12879,7132.03836 12941,7300.03836 12941,7508.03836 C12941,7725.03836 12888,7861.03836 12751,7999.03836 C12618,8134.03836 12551,8167.03836 12136,8310.03836 C12010,8353.03836 11878,8402.03836 11843,8418.03836 C11660,8503.03836 11561,8621.03836 11542,8777.03836 C11513,9004.03836 11614,9193.03836 11816,9293.03836 C11920,9345.03836 11998,9362.03836 12126,9362.03836 C12343,9362.03836 12489,9302.03836 12632,9156.03836 C12684,9102.03836 12692,9097.03836 12709,9110.03836 C12782,9162.03836 12901,9263.03836 12901,9273.03836 C12901,9291.03836 12782,9401.03836 12716,9443.03836 C12630,9499.03836 12524,9545.03836 12429,9569.03836 C12303,9601.03836 12030,9605.03836 11901,9577.03836 L11901,9577.03836 Z" id="Shape" fill="#464646" transform="translate(12066.000000, 8159.019180) scale(1, -1) translate(-12066.000000, -8159.019180) "></path>
            <path d="M13821,9582.00722 C13655,9545.00722 13536,9490.00722 13426,9400.00722 C13318,9312.00722 13248,9209.00722 13204,9076.00722 C13181,9005.00722 13178,8979.00722 13177,8856.00722 C13177,8753.00722 13181,8699.00722 13194,8651.00722 C13255,8426.00722 13412,8269.00722 13686,8161.00722 C13730,8143.00722 13861,8098.00722 13976,8059.00722 C14213,7980.00722 14301,7941.00722 14387,7878.00722 C14495,7798.00722 14554,7701.00722 14573,7572.00722 C14602,7372.00722 14513,7179.00722 14338,7067.00722 C14119,6927.00722 13803,6927.00722 13583,7067.00722 C13498,7122.00722 13440,7174.00722 13391,7240.00722 C13366,7273.00722 13341,7299.00722 13335,7296.00722 C13329,7294.00722 13274,7256.00722 13213,7210.00722 L13102,7128.00722 L13121,7101.00722 C13161,7045.00722 13306,6918.00722 13380,6875.00722 C13813,6621.00722 14424,6691.00722 14693,7025.00722 C14808,7168.00722 14853,7305.00722 14854,7511.00722 C14855,7710.00722 14818,7826.00722 14714,7956.00722 C14599,8098.00722 14460,8174.00722 14071,8306.00722 C13787,8403.00722 13733,8425.00722 13664,8472.00722 C13519,8569.00722 13451,8689.00722 13451,8848.00722 C13451,8990.00722 13493,9095.00722 13590,9192.00722 C13758,9360.00722 14034,9414.00722 14289,9330.00722 C14370,9303.00722 14485,9226.00722 14549,9156.00722 C14577,9126.00722 14602,9101.00722 14606,9101.00722 C14609,9101.00722 14658,9138.00722 14714,9183.00722 C14770,9228.00722 14818,9266.00722 14820,9267.00722 C14822,9269.00722 14813,9284.00722 14801,9301.00722 C14734,9395.00722 14508,9530.00722 14346,9572.00722 C14228,9603.00722 13941,9609.00722 13821,9582.00722 L13821,9582.00722 Z" id="Shape" fill="#464646" transform="translate(13978.009836, 8160.503609) scale(1, -1) translate(-13978.009836, -8160.503609) "></path>
            <path d="M15606,7707.25655 C15579,7696.25655 15552,7683.25655 15548,7679.25655 C15543,7674.25655 15544,7644.25655 15550,7612.25655 L15561,7554.25655 L15524,7515.25655 C15489,7479.25655 15483,7477.25655 15444,7482.25655 C15420,7485.25655 15391,7490.25655 15378,7493.25655 C15357,7499.25655 15352,7492.25655 15329,7439.25655 L15303,7378.25655 L15357,7341.25655 C15410,7303.25655 15411,7303.25655 15411,7251.25655 C15411,7200.25655 15409,7197.25655 15369,7167.25655 C15345,7150.25655 15320,7133.25655 15313,7129.25655 C15291,7117.25655 15342,7002.25655 15367,7005.25655 C15377,7006.25655 15406,7010.25655 15431,7013.25655 C15474,7019.25655 15478,7018.25655 15515,6979.25655 L15554,6939.25655 L15542,6878.25655 C15535,6844.25655 15531,6815.25655 15533,6814.25655 C15535,6812.25655 15556,6803.25655 15581,6794.25655 C15606,6784.25655 15631,6774.25655 15638,6771.25655 C15644,6768.25655 15666,6789.25655 15686,6817.25655 C15723,6868.25655 15723,6868.25655 15779,6868.25655 C15836,6868.25655 15836,6868.25655 15864,6823.25655 C15880,6798.25655 15897,6775.25655 15903,6772.25655 C15908,6769.25655 15938,6776.25655 15970,6788.25655 L16028,6809.25655 L16016,6873.25655 L16004,6937.25655 L16045,6977.25655 L16086,7017.25655 L16149,7004.25655 L16211,6990.25655 L16230,7033.25655 C16265,7112.25655 16265,7110.25655 16211,7147.25655 L16161,7181.25655 L16161,7239.25655 L16161,7297.25655 L16209,7329.25655 C16235,7347.25655 16258,7363.25655 16260,7364.25655 C16262,7366.25655 16253,7395.25655 16241,7429.25655 C16218,7488.25655 16217,7490.25655 16187,7484.25655 C16084,7463.25655 16087,7462.25655 16047,7511.25655 C16012,7554.25655 16011,7558.25655 16020,7599.25655 C16037,7670.25655 16035,7673.25655 15974,7699.25655 L15916,7724.25655 L15881,7674.25655 C15846,7624.25655 15844,7623.25655 15789,7620.25655 L15732,7617.25655 L15695,7673.25655 C15675,7703.25655 15658,7728.25655 15657,7727.25655 C15656,7727.25655 15634,7718.25655 15606,7707.25655 L15606,7707.25655 Z M15882,7416.25655 C15903,7404.25655 15933,7377.25655 15948,7355.25655 C15972,7320.25655 15976,7305.25655 15976,7243.25655 C15976,7181.25655 15972,7166.25655 15948,7129.25655 C15916,7080.25655 15838,7038.25655 15781,7038.25655 C15724,7038.25655 15646,7080.25655 15615,7128.25655 C15576,7187.25655 15570,7270.25655 15601,7332.25655 C15651,7436.25655 15779,7474.25655 15882,7416.25655 L15882,7416.25655 Z" id="Shape" fill="#E70F47" transform="translate(15781.639529, 7249.128274) scale(1, -1) translate(-15781.639529, -7249.128274) "></path>
            <path d="M5751,8161 L5751,6791 L5891,6791 L6031,6791 L6031,7983 C6031,8638 6034,9172 6037,9168 C6040,9165 6265,8630 6535,7979 L7028,6796 L7103,6793 L7178,6790 L7671,7976 C7943,8628 8168,9164 8173,9167 C8177,9170 8181,8636 8181,7982 L8181,6791 L8321,6791 L8461,6791 L8461,8161 L8461,9531 L8244,9529 L8027,9526 L7571,8399 C7321,7779 7113,7271 7110,7271 C7107,7271 6921,7720 6696,8269 C6472,8817 6263,9326 6233,9399 L6179,9531 L5965,9531 L5751,9531 L5751,8161 L5751,8161 Z" id="Shape" fill="#464646" transform="translate(7106.000000, 8160.500000) scale(1, -1) translate(-7106.000000, -8160.500000) "></path>
            <path d="M9768,9518 C9765,9511 9501,8900 9181,8160 C8861,7420 8597,6809 8594,6803 C8590,6793 8623,6790 8742,6790 L8896,6790 L8942,6903 C8968,6964 9035,7126 9091,7263 L9194,7510 L9904,7508 L10615,7505 L10765,7148 L10915,6790 L11068,6790 C11152,6790 11221,6792 11221,6795 C11221,6797 10960,7408 10640,8152 C10320,8896 10057,9511 10054,9518 C10050,9527 10012,9530 9911,9530 C9810,9530 9772,9527 9768,9518 L9768,9518 Z M10215,8472 C10374,8091 10501,7777 10499,7774 C10496,7772 10226,7771 9898,7772 L9302,7775 L9594,8480 C9755,8868 9890,9194 9895,9205 C9902,9223 9904,9222 9915,9195 C9922,9179 10057,8853 10215,8472 L10215,8472 Z" id="Shape" fill="#464646" transform="translate(9907.341513, 8160.000000) scale(1, -1) translate(-9907.341513, -8160.000000) "></path>
            <path d="M5336,11079.3321 C5212,11051.3321 5132,10964.3321 5097,10818.3321 C5051,10631.3321 5080,10386.3321 5159,10286.3321 C5175,10267.3321 5212,10238.3321 5242,10221.3321 C5290,10195.3321 5306,10191.3321 5381,10191.3321 C5517,10191.3321 5596,10240.3321 5652,10361.3321 C5690,10442.3321 5702,10509.3321 5702,10646.3321 C5702,10898.3321 5627,11044.3321 5480,11075.3321 C5430,11086.3321 5373,11088.3321 5336,11079.3321 L5336,11079.3321 Z M5451,10908.3321 C5495,10863.3321 5506,10810.3321 5506,10636.3321 C5506,10462.3321 5495,10409.3321 5451,10364.3321 C5397,10310.3321 5328,10336.3321 5294,10424.3321 C5268,10492.3321 5268,10767.3321 5294,10843.3321 C5326,10935.3321 5395,10963.3321 5451,10908.3321 L5451,10908.3321 Z" id="Shape" fill="#464646" transform="translate(5388.528644, 10638.166042) scale(1, -1) translate(-5388.528644, -10638.166042) "></path>
            <path d="M7840,11062 C7799,11031 7729,10994 7664,10969 L7601,10945 L7601,10869 L7601,10792 L7642,10801 C7664,10806 7705,10822 7731,10835 C7758,10849 7783,10860 7786,10860 C7789,10860 7791,10709 7791,10525 L7791,10190 L7881,10190 L7971,10190 L7971,10635 L7971,11080 L7917,11080 C7881,11080 7856,11074 7840,11062 L7840,11062 Z" id="Shape" fill="#E70F47" transform="translate(7786.000000, 10635.000000) scale(1, -1) translate(-7786.000000, -10635.000000) "></path>
            <path d="M10216,11079.3321 C10092,11051.3321 10012,10964.3321 9977,10818.3321 C9931,10631.3321 9960,10386.3321 10039,10286.3321 C10055,10267.3321 10092,10238.3321 10122,10221.3321 C10170,10195.3321 10186,10191.3321 10261,10191.3321 C10397,10191.3321 10476,10240.3321 10532,10361.3321 C10570,10442.3321 10582,10509.3321 10582,10646.3321 C10582,10898.3321 10507,11044.3321 10360,11075.3321 C10310,11086.3321 10253,11088.3321 10216,11079.3321 L10216,11079.3321 Z M10331,10908.3321 C10375,10863.3321 10386,10810.3321 10386,10636.3321 C10386,10462.3321 10375,10409.3321 10331,10364.3321 C10277,10310.3321 10208,10336.3321 10174,10424.3321 C10148,10492.3321 10148,10767.3321 10174,10843.3321 C10206,10935.3321 10275,10963.3321 10331,10908.3321 L10331,10908.3321 Z" id="Shape" fill="#464646" transform="translate(10268.528644, 10638.166042) scale(1, -1) translate(-10268.528644, -10638.166042) "></path>
            <path d="M12730,11062 C12689,11031 12619,10994 12554,10969 L12491,10945 L12491,10869 L12491,10792 L12532,10801 C12554,10806 12595,10822 12621,10835 C12648,10849 12673,10860 12676,10860 C12679,10860 12681,10709 12681,10525 L12681,10190 L12771,10190 L12861,10190 L12861,10635 L12861,11080 L12807,11080 C12771,11080 12746,11074 12730,11062 L12730,11062 Z" id="Shape" fill="#E70F47" transform="translate(12676.000000, 10635.000000) scale(1, -1) translate(-12676.000000, -10635.000000) "></path>
            <circle id="Oval" fill="#E70F47" cx="2444" cy="6586" r="202"></circle>
            <circle id="Oval" fill="#464646" cx="2445" cy="5334" r="331"></circle>
            <path d="M2445,5536 C2556.56152,5536 2647,5445.56152 2647,5334 C2647,5222.43848 2556.56152,5132 2445,5132 C2333.43848,5132 2243,5222.43848 2243,5334 C2243,5445.56152 2333.43848,5536 2445,5536 Z" id="Oval" fill="#E70F47"></path>
            <circle id="Oval" fill="#464646" cx="5169" cy="1996" r="331"></circle>
            <path d="M5169,2198 C5280.56152,2198 5371,2107.56152 5371,1996 C5371,1884.43848 5280.56152,1794 5169,1794 C5057.43848,1794 4967,1884.43848 4967,1996 C4967,2107.56152 5057.43848,2198 5169,2198 Z" id="Oval" fill="#E70F47"></path>
            <circle id="Oval" fill="#464646" cx="3363" cy="3828" r="331"></circle>
            <path d="M3363,4030 C3474.56152,4030 3565,3939.56152 3565,3828 C3565,3716.43848 3474.56152,3626 3363,3626 C3251.43848,3626 3161,3716.43848 3161,3828 C3161,3939.56152 3251.43848,4030 3363,4030 Z" id="Oval" fill="#E70F47"></path>
        </g>
    </g>
</svg>