<?xml version="1.0" encoding="UTF-8"?>
<svg width="738px" height="472px" viewBox="0 0 738 472" version="1.1" xmlns="http://www.w3.org/2000/svg" xmlns:xlink="http://www.w3.org/1999/xlink">
    <!-- Generator: Sketch 50 (54983) - http://www.bohemiancoding.com/sketch -->
    <title>Purple and Black</title>
    <desc>Created with Sketch.</desc>
    <defs></defs>
    <g id="Purple-and-Black" stroke="none" stroke-width="1" fill="none" fill-rule="evenodd">
        <g id="Group" transform="translate(7.000000, 11.000000)">
            <g id="logo" fill-rule="nonzero">
                <path d="M26.284,255.076 L19.712,248.356 L95.654,174.1 L95.654,160.37 L126.602,129.432 L126.602,86.098 L138.802,68.058 L138.802,2.446 C139.607426,1.5796847 140.260376,1.03789098 140.76085,0.82061884 C141.511562,0.494710628 142.124595,0.251464745 143.486734,0.201313064 C144.848872,0.151161383 145.549456,0.435141182 146.272988,0.72974136 C146.755343,0.926141478 147.39768,1.49822769 148.2,2.446 L148.2,70.936 L136,88.974 L136,133.324 L105.052,164.266 L105.052,178.05 L26.284,255.076 Z" id="Shape" fill="#353B48"></path>
                <polygon id="Shape" fill="#353B48" points="121.384 243.81 111.984 243.81 111.984 167.626 141.548 136.984 160.11 136.984 198.782 92.284 235.308 92.284 235.308 101.682 203.076 101.682 164.406 146.384 143.382 146.384 121.384 169.182"></polygon>
                <polygon id="Shape" fill="#353B48" points="177.994 306.774 157.554 288.166 157.554 241.862 129.18 217.802 129.18 167.708 143.22 153.326 179.206 153.326 189.864 142.666 196.512 149.312 183.102 162.72 146.89 162.72 138.576 171.376 138.576 213.452 166.958 237.502 166.958 284.022 168.498 285.424 184.316 299.828"></polygon>
                <path d="M64.878,171.768 L58.454,164.91 L111.114,115.592 L111.114,18.4 C111.858081,17.8144984 112.408232,17.4366768 112.764456,17.2665352 C113.94013,16.7050026 115.002025,16.6180756 115.828888,16.6180756 C116.535299,16.6180756 117.4768,16.7348905 118.430491,17.1447392 C118.877137,17.3366851 119.570973,17.7551054 120.512,18.4 L120.512,119.668 L64.878,171.768 Z" id="Shape" fill="#353B48"></path>
                <path d="M116.686,240.478 C108.42,240.478 101.704,247.192 101.704,255.474 C101.704,263.75 108.418,270.454 116.686,270.454 C124.972,270.454 131.674,263.746 131.674,255.474 C131.674,247.194 124.972,240.478 116.686,240.478 Z" id="Shape" fill="#353B48"></path>
                <path d="M72.428,256.052 C64.138,256.052 57.432,262.786 57.432,271.052 C57.432,279.334 64.138,286.036 72.428,286.036 C80.7,286.036 87.406,279.33 87.406,271.052 C87.408,262.788 80.7,256.052 72.428,256.052 Z" id="Shape" fill="#353B48"></path>
                <circle id="Oval" fill="#353B48" cx="72.428" cy="271.058" r="7.498"></circle>
                <path d="M116.686,300.552 C108.42,300.552 101.704,307.252 101.704,315.528 C101.704,323.804 108.418,330.528 116.686,330.528 C124.972,330.528 131.674,323.806 131.674,315.528 C131.674,307.26 124.972,300.552 116.686,300.552 Z" id="Shape" fill="#353B48"></path>
                <path d="M116.686,308.044 C112.55,308.044 109.19,311.396 109.19,315.528 C109.19,319.674 112.55,323.032 116.686,323.032 C120.84,323.032 124.186,319.674 124.186,315.528 C124.184,311.396 120.84,308.044 116.686,308.044 Z" id="Shape" fill="#353B48"></path>
                <path d="M15.5,243.912 C7.204,243.912 0.504,250.616 0.504,258.888 C0.504,267.168 7.206,273.884 15.5,273.884 C23.78,273.884 30.474,267.168 30.474,258.888 C30.472,250.616 23.782,243.912 15.5,243.912 Z" id="Shape" fill="#353B48"></path>
                <path d="M15.5,251.384 C11.352,251.384 8,254.75 8,258.894 C8,263.04 11.352,266.394 15.5,266.394 C19.618,266.394 22.988,263.04 22.988,258.894 C22.99,254.75 19.62,251.384 15.5,251.384 Z" id="Shape" fill="#353B48"></path>
                <path d="M204.578,125.518 C196.31,125.518 189.604,132.226 189.604,140.514 C189.604,148.788 196.302,155.492 204.578,155.492 C212.876,155.492 219.574,148.784 219.574,140.514 C219.572,132.222 212.874,125.518 204.578,125.518 Z" id="Shape" fill="#353B48"></path>
                <path d="M204.578,133.014 C200.436,133.014 197.09,136.374 197.09,140.514 C197.09,144.632 200.436,148.008 204.578,148.008 C208.726,148.008 212.084,144.632 212.084,140.514 C212.076,136.374 208.72,133.014 204.578,133.014 Z" id="Shape" fill="#353B48"></path>
                <path d="M247.13,82.012 C238.848,82.012 232.142,88.716 232.142,96.986 C232.142,105.282 238.848,111.988 247.13,111.988 C255.424,111.988 262.122,105.28 262.122,96.986 C262.124,88.71 255.424,82.012 247.13,82.012 Z" id="Shape" fill="#353B48"></path>
                <path d="M247.13,89.494 C242.984,89.494 239.63,92.842 239.63,96.982 C239.63,101.138 242.982,104.476 247.13,104.476 C251.268,104.476 254.622,101.138 254.622,96.982 C254.622,92.842 251.268,89.494 247.13,89.494 Z" id="Shape" fill="#353B48"></path>
                <path d="M159.624,170.396 C151.332,170.396 144.63,177.122 144.63,185.382 C144.63,193.662 151.332,200.38 159.624,200.38 C167.898,200.38 174.6,193.662 174.6,185.382 C174.598,177.124 167.906,170.396 159.624,170.396 Z" id="Shape" fill="#353B48"></path>
                <path d="M159.624,177.888 C155.48,177.888 152.124,181.252 152.124,185.388 C152.124,189.536 155.48,192.888 159.624,192.888 C163.754,192.888 167.106,189.536 167.106,185.388 C167.106,181.252 163.752,177.888 159.624,177.888 Z" id="Shape" fill="#353B48"></path>
                <path d="M200.816,190.082 L174.598,190.082 L174.598,180.688 L196.74,180.688 L295.276,75.416 C297.732933,75.0725582 299.556977,75.4580528 300.748134,76.5724838 C301.93929,77.6869148 302.402579,79.4414202 302.138,81.836 L200.816,190.082 Z" id="Shape" fill="#353B48"></path>
                <path d="M54.154,162.27 C45.866,162.27 39.154,168.978 39.154,177.252 C39.154,185.52 45.868,192.244 54.154,192.244 C62.428,192.244 69.136,185.52 69.136,177.252 C69.136,168.978 62.43,162.27 54.154,162.27 Z" id="Shape" fill="#353B48"></path>
                <path d="M188.406,296.682 C180.128,296.682 173.422,303.392 173.422,311.686 C173.422,319.94 180.128,326.66 188.406,326.66 C196.694,326.66 203.394,319.94 203.394,311.686 C203.398,303.392 196.7,296.682 188.406,296.682 Z" id="Shape" fill="#353B48"></path>
                <path d="M316.3,93.234 C308.034,93.234 301.32,99.934 301.32,108.21 C301.32,116.486 308.034,123.206 316.3,123.206 C324.586,123.206 331.288,116.488 331.288,108.21 C331.288,99.942 324.584,93.234 316.3,93.234 Z" id="Shape" fill="#353B48"></path>
                <path d="M287.788,121.748 C279.522,121.748 272.806,128.446 272.806,136.722 C272.806,145 279.52,151.718 287.788,151.718 C296.074,151.718 302.776,145 302.776,136.722 C302.776,128.454 296.074,121.748 287.788,121.748 Z" id="Shape" fill="#353B48"></path>
                <path d="M663.486,362.754 L670.582,361.462 L670.758,353.872 L663.732,352.254 L661.418,346.27 L665.526,340.35 L660.292,334.858 L654.174,338.682 L648.306,336.082 L647.014,328.992 L639.428,328.818 L637.804,335.838 L631.822,338.154 L625.898,334.048 L620.408,339.288 L624.228,345.4 L621.634,351.27 L614.544,352.56 L614.364,360.144 L621.386,361.766 L623.704,367.752 L619.6,373.67 L624.842,379.162 L630.952,375.344 L636.818,377.938 L638.11,385.034 L645.694,385.208 L647.316,378.178 L653.296,375.872 L659.222,379.974 L664.712,374.734 L660.896,368.618 L663.486,362.754 Z M637.882,367.578 C632.08,365.08 629.396,358.352 631.89,352.554 C634.386,346.75 641.11,344.072 646.918,346.568 C652.712,349.062 655.394,355.788 652.9,361.59 C650.41,367.388 643.68,370.07 637.882,367.578 Z" id="hackumass-logo-bottom-gear" fill="#926DDE"></path>
                <path d="M711.498,314.85 L719.206,310.162 L716.01,301.214 L707.07,302.47 L701.694,296.524 L703.83,287.754 L695.246,283.692 L689.814,290.896 L681.802,290.496 L677.112,282.79 L668.172,285.988 L669.42,294.92 L663.474,300.302 L654.708,298.164 L650.644,306.748 L657.852,312.18 L657.454,320.194 L649.75,324.876 L652.938,333.824 L661.872,332.572 L667.254,338.528 L665.114,347.278 L673.7,351.346 L679.13,344.144 L687.146,344.544 L691.834,352.248 L700.782,349.052 L699.52,340.118 L705.472,334.742 L714.242,336.874 L718.306,328.29 L711.098,322.854 L711.498,314.85 Z M683.85,329.474 C677.328,329.212 672.258,323.718 672.504,317.202 C672.762,310.682 678.264,305.608 684.788,305.862 C691.298,306.122 696.384,311.616 696.11,318.142 C695.856,324.652 690.368,329.728 683.85,329.474 Z" id="hackumass-logo-middle-gear" fill="#926DDE"></path>
                <path d="M709.748,251.562 L697.724,245.384 L697.662,235.026 L709.6,228.686 L705.968,217.756 L692.612,219.82 L686.472,211.482 L692.402,199.334 L683.034,192.626 L673.436,202.148 L663.568,199.01 L661.232,185.7 C659.080984,185.714549 657.082645,185.728065 655.236984,185.740549 C653.391323,185.753033 651.545661,185.765516 649.7,185.778 L647.54,199.118 L637.712,202.384 L627.998,192.988 L618.72,199.822 L624.806,211.884 L618.774,220.3 L605.396,218.418 L601.908,229.396 L613.924,235.58 L613.986,245.932 L602.056,252.272 L605.684,263.206 L619.044,261.14 L625.184,269.48 L619.246,281.62 L628.614,288.334 L638.212,278.818 L648.084,281.946 L650.424,295.258 L661.944,295.182 L664.108,281.836 L673.936,278.578 L683.658,287.968 L692.928,281.14 L686.838,269.066 L692.874,260.652 L706.256,262.536 L709.748,251.562 Z M655.828,254.034 C648.332,254.034 642.266,247.968 642.266,240.48 C642.266,232.992 648.332,226.918 655.828,226.918 C663.316,226.918 669.382,232.992 669.382,240.48 C669.382,247.966 663.316,254.034 655.828,254.034 Z" id="hackumass-logo-top-gear" fill="#926DDE"></path>
            </g>
            <text id="HACK" font-family="Dosis-Medium, Dosis" font-size="180" font-weight="400" letter-spacing="0.744478405" fill="#926DDE">
                <tspan x="215" y="298">HACK</tspan>
            </text>
            <text id="UMASS" font-family="Dosis-Regular, Dosis" font-size="158" font-weight="normal" letter-spacing="0.653486609" fill="#353B48">
                <tspan x="145" y="439">UMASS</tspan>
            </text>
            <path d="" id="Path" stroke="#979797" stroke-width="2"></path>
            <polygon id="Path-2" fill="#353B48" points="156.491024 329.555529 156.896849 242.088675 166.993459 242.088675 166.993459 329.555529"></polygon>
        </g>
    </g>
</svg>